<svg width="48" height="48" viewBox="0 0 48 48" xmlns="http://www.w3.org/2000/svg">
  <!-- Server Rack -->
  <rect x="8" y="6" width="32" height="36" rx="2" fill="#8b5cf6" stroke="#7c3aed" stroke-width="2"/>

  <!-- Server Unit 1 -->
  <rect x="10" y="8" width="28" height="8" rx="1" fill="#a78bfa" stroke="#6d28d9" stroke-width="1"/>
  <circle cx="13" cy="12" r="1.5" fill="#4ade80"/>
  <circle cx="17" cy="12" r="1.5" fill="#4ade80"/>
  <rect x="22" y="10" width="14" height="4" rx="0.5" fill="#1f2937"/>

  <!-- Server Unit 2 -->
  <rect x="10" y="18" width="28" height="8" rx="1" fill="#a78bfa" stroke="#6d28d9" stroke-width="1"/>
  <circle cx="13" cy="22" r="1.5" fill="#4ade80"/>
  <circle cx="17" cy="22" r="1.5" fill="#60a5fa"/>
  <rect x="22" y="20" width="14" height="4" rx="0.5" fill="#1f2937"/>

  <!-- Server Unit 3 -->
  <rect x="10" y="28" width="28" height="8" rx="1" fill="#a78bfa" stroke="#6d28d9" stroke-width="1"/>
  <circle cx="13" cy="32" r="1.5" fill="#4ade80"/>
  <circle cx="17" cy="32" r="1.5" fill="#4ade80"/>
  <rect x="22" y="30" width="14" height="4" rx="0.5" fill="#1f2937"/>

  <!-- Power/Status Panel -->
  <rect x="10" y="38" width="28" height="3" rx="0.5" fill="#6d28d9"/>
  <circle cx="14" cy="39.5" r="1" fill="#22c55e"/>
  <circle cx="18" cy="39.5" r="1" fill="#3b82f6"/>
</svg>
