<svg width="48" height="48" viewBox="0 0 48 48" xmlns="http://www.w3.org/2000/svg">
  <!-- Switch Body -->
  <rect x="4" y="16" width="40" height="22" rx="2" fill="#3b82f6" stroke="#2563eb" stroke-width="2"/>

  <!-- Front Panel -->
  <rect x="6" y="20" width="36" height="14" rx="1" fill="#60a5fa" opacity="0.3"/>

  <!-- Ports Row 1 -->
  <rect x="8" y="22" width="3" height="4" rx="0.5" fill="#1e3a8a"/>
  <rect x="13" y="22" width="3" height="4" rx="0.5" fill="#1e3a8a"/>
  <rect x="18" y="22" width="3" height="4" rx="0.5" fill="#1e3a8a"/>
  <rect x="23" y="22" width="3" height="4" rx="0.5" fill="#1e3a8a"/>
  <rect x="28" y="22" width="3" height="4" rx="0.5" fill="#1e3a8a"/>
  <rect x="33" y="22" width="3" height="4" rx="0.5" fill="#1e3a8a"/>
  <rect x="38" y="22" width="3" height="4" rx="0.5" fill="#1e3a8a"/>

  <!-- Ports Row 2 -->
  <rect x="8" y="28" width="3" height="4" rx="0.5" fill="#1e3a8a"/>
  <rect x="13" y="28" width="3" height="4" rx="0.5" fill="#1e3a8a"/>
  <rect x="18" y="28" width="3" height="4" rx="0.5" fill="#1e3a8a"/>
  <rect x="23" y="28" width="3" height="4" rx="0.5" fill="#1e3a8a"/>
  <rect x="28" y="28" width="3" height="4" rx="0.5" fill="#1e3a8a"/>
  <rect x="33" y="28" width="3" height="4" rx="0.5" fill="#1e3a8a"/>
  <rect x="38" y="28" width="3" height="4" rx="0.5" fill="#1e3a8a"/>

  <!-- Status LEDs -->
  <circle cx="8" cy="19" r="1" fill="#4ade80"/>
  <circle cx="12" cy="19" r="1" fill="#4ade80"/>
  <circle cx="16" cy="19" r="1" fill="#60a5fa"/>
</svg>
